<svg width="24" height="24" viewBox="0 0 24 24" fill="none" xmlns="http://www.w3.org/2000/svg">
<g clip-path="url(#clip0_18428_1284)">
<circle cx="12" cy="12" r="10" fill="white"/>
<path d="M12.5929 23.2584L12.5819 23.2604L12.5109 23.2954L12.4909 23.2994L12.4769 23.2954L12.4059 23.2604C12.3953 23.2571 12.3873 23.2588 12.3819 23.2654L12.3779 23.2754L12.3609 23.7034L12.3659 23.7234L12.3759 23.7364L12.4799 23.8104L12.4949 23.8144L12.5069 23.8104L12.6109 23.7364L12.6229 23.7204L12.6269 23.7034L12.6099 23.2764C12.6073 23.2658 12.6016 23.2598 12.5929 23.2584ZM12.8579 23.1454L12.8449 23.1474L12.6599 23.2404L12.6499 23.2504L12.6469 23.2614L12.6649 23.6914L12.6699 23.7034L12.6779 23.7104L12.8789 23.8034C12.8916 23.8068 12.9013 23.8041 12.9079 23.7954L12.9119 23.7814L12.8779 23.1674C12.8746 23.1554 12.8679 23.1481 12.8579 23.1454ZM12.1429 23.1474C12.1385 23.1448 12.1333 23.1439 12.1282 23.145C12.1232 23.1461 12.1188 23.1491 12.1159 23.1534L12.1099 23.1674L12.0759 23.7814C12.0766 23.7934 12.0823 23.8014 12.0929 23.8054L12.1079 23.8034L12.3089 23.7104L12.3189 23.7024L12.3229 23.6914L12.3399 23.2614L12.3369 23.2494L12.3269 23.2394L12.1429 23.1474Z" fill="#E17B0E"/>
<path d="M12 0C18.6276 0 24 5.3724 24 12C24 18.6276 18.6276 24 12 24C5.3724 24 0 18.6276 0 12C0 5.3724 5.3724 0 12 0ZM16.242 7.6572L10.302 13.5972L7.758 11.052C7.64659 10.9405 7.5143 10.8521 7.36871 10.7917C7.22311 10.7313 7.06704 10.7002 6.90942 10.7002C6.5911 10.7 6.28577 10.8264 6.0606 11.0514C5.83543 11.2764 5.70887 11.5817 5.70876 11.9C5.70864 12.2183 5.83499 12.5236 6.06 12.7488L9.3696 16.0584C9.49218 16.181 9.63772 16.2783 9.79792 16.3447C9.95811 16.4111 10.1298 16.4452 10.3032 16.4452C10.4766 16.4452 10.6483 16.4111 10.8085 16.3447C10.9687 16.2783 11.1142 16.181 11.2368 16.0584L17.94 9.3552C18.1652 9.13003 18.2917 8.82464 18.2917 8.5062C18.2917 8.18776 18.1652 7.88237 17.94 7.6572C17.7148 7.43203 17.4094 7.30553 17.091 7.30553C16.7726 7.30553 16.4672 7.43203 16.242 7.6572Z" fill="#E17B0E"/>
</g>
<defs>
<clipPath id="clip0_18428_1284">
<rect width="24" height="24" fill="white"/>
</clipPath>
</defs>
</svg>
