<svg width="48" height="48" viewBox="0 0 48 48" fill="none" xmlns="http://www.w3.org/2000/svg">
<path d="M0 24C0 10.7452 10.7452 0 24 0C37.2548 0 48 10.7452 48 24C48 37.2548 37.2548 48 24 48C10.7452 48 0 37.2548 0 24Z" fill="#F3EBFF"/>
<path d="M24 29.5H24.01M20.2 34H27.8C28.9201 34 29.4802 34 29.908 33.782C30.2843 33.5903 30.5903 33.2843 30.782 32.908C31 32.4802 31 31.9201 31 30.8V17.2C31 16.0799 31 15.5198 30.782 15.092C30.5903 14.7157 30.2843 14.4097 29.908 14.218C29.4802 14 28.9201 14 27.8 14H20.2C19.0799 14 18.5198 14 18.092 14.218C17.7157 14.4097 17.4097 14.7157 17.218 15.092C17 15.5198 17 16.0799 17 17.2V30.8C17 31.9201 17 32.4802 17.218 32.908C17.4097 33.2843 17.7157 33.5903 18.092 33.782C18.5198 34 19.0799 34 20.2 34ZM24.5 29.5C24.5 29.7761 24.2761 30 24 30C23.7239 30 23.5 29.7761 23.5 29.5C23.5 29.2239 23.7239 29 24 29C24.2761 29 24.5 29.2239 24.5 29.5Z" stroke="#6600EB" stroke-width="2.25" stroke-linecap="round" stroke-linejoin="round"/>
</svg>
