<svg width="48" height="53" viewBox="0 0 48 53" fill="none" xmlns="http://www.w3.org/2000/svg">
<path d="M47.5003 26.0648C42.4765 27.5006 36.2731 29.5524 32.6318 33.3935C28.1957 38.0738 26.7376 45.0281 25.4672 51.9541C25.3459 52.6212 24.4137 52.6545 24.246 51.9945C22.8552 46.5219 21.0786 39.9545 17.6717 35.9706C13.3385 30.9022 6.85807 28.9846 0.514041 27.6176C-0.149736 27.475 -0.17876 26.5967 0.474153 26.4106C5.93164 24.8524 12.1783 22.8163 15.9761 18.4592C19.9339 13.9176 21.354 6.95714 22.5449 0.517591C22.6687 -0.149607 23.601 -0.180415 23.7661 0.477233C25.2737 6.43956 27.7305 13.1884 31.5934 17.3463C35.7876 21.8617 41.5622 23.5841 47.4604 24.8554C48.1241 24.998 48.1532 25.8762 47.5003 26.0624L47.5003 26.0648Z" fill="#F3993F"/>
</svg>
