<svg width="24" height="24" viewBox="0 0 24 24" fill="none" xmlns="http://www.w3.org/2000/svg">
<g clip-path="url(#clip0_18428_1286)">
<circle cx="11.3999" cy="11.3996" r="7.8" fill="white"/>
<path d="M12 0C18.6276 0 24 5.3724 24 12C24 18.6276 18.6276 24 12 24C5.3724 24 0 18.6276 0 12C0 5.3724 5.3724 0 12 0ZM9.4548 7.7568C9.23935 7.53929 8.94892 7.41236 8.64294 7.40198C8.33697 7.3916 8.0386 7.49856 7.8089 7.70096C7.57921 7.90336 7.43556 8.1859 7.40736 8.49075C7.37915 8.7956 7.46853 9.0997 7.6572 9.3408L7.758 9.4548L10.302 11.9988L7.758 14.5452C7.5405 14.7607 7.41356 15.0511 7.40318 15.3571C7.3928 15.663 7.49976 15.9614 7.70216 16.1911C7.90456 16.4208 8.1871 16.5644 8.49195 16.5926C8.7968 16.6208 9.10089 16.5315 9.342 16.3428L9.4548 16.2432L12 13.6968L14.5452 16.2432C14.7607 16.4607 15.0511 16.5876 15.3571 16.598C15.663 16.6084 15.9614 16.5014 16.1911 16.299C16.4208 16.0966 16.5644 15.8141 16.5926 15.5093C16.6208 15.2044 16.5315 14.9003 16.3428 14.6592L16.2432 14.5452L13.6968 12L16.2432 9.4548C16.4607 9.23935 16.5876 8.94892 16.598 8.64294C16.6084 8.33697 16.5014 8.0386 16.299 7.8089C16.0966 7.57921 15.8141 7.43556 15.5093 7.40736C15.2044 7.37915 14.9003 7.46853 14.6592 7.6572L14.5452 7.7568L12 10.3032L9.4548 7.7568Z" fill="#A4A7AE"/>
</g>
<defs>
<clipPath id="clip0_18428_1286">
<rect width="24" height="24" fill="white"/>
</clipPath>
</defs>
</svg>
