<svg width="48" height="48" viewBox="0 0 48 48" fill="none" xmlns="http://www.w3.org/2000/svg">
<rect width="48" height="48" rx="24" fill="#410292"/>
<path d="M23.8531 38.3086C15.9055 38.3086 9.43665 31.8398 9.43665 23.8921C9.43665 15.9444 15.9055 9.47559 23.8531 9.47559C31.8008 9.47559 38.2696 15.9444 38.2696 23.8921C38.2696 31.8398 31.8008 38.3086 23.8531 38.3086ZM23.8531 11.8008C17.1843 11.8008 11.7619 17.2233 11.7619 23.8921C11.7619 30.5609 17.1843 35.9833 23.8531 35.9833C30.5219 35.9833 35.9444 30.5609 35.9444 23.8921C35.9444 17.2233 30.5219 11.8008 23.8531 11.8008Z" fill="#FDFDFD"/>
<path d="M19.6684 22.4737C16.9433 22.4737 13.9948 22.0692 10.8511 21.2507C10.228 21.0879 9.85592 20.4554 10.0187 19.8323C10.1815 19.2091 10.8139 18.8371 11.4371 18.9998C20.9613 21.4739 28.416 19.9067 32.9921 14.4749C33.406 13.9866 34.1407 13.9215 34.629 14.3354C35.122 14.7493 35.1824 15.4841 34.7686 15.9724C31.1365 20.2834 26.0024 22.4737 19.6684 22.4737Z" fill="#FDFDFD"/>
<path d="M13.8555 33.7554C13.5857 33.7554 13.3207 33.6623 13.1021 33.4763C12.6138 33.0578 12.558 32.323 12.9719 31.8347C19.7709 23.887 28.5696 21.9989 37.1125 26.6634C37.6752 26.9703 37.8845 27.6772 37.5776 28.2399C37.2706 28.8026 36.5638 29.0119 36.0011 28.7049C25.7421 23.1104 18.2781 29.2118 14.7391 33.3508C14.5112 33.6158 14.1857 33.7554 13.8555 33.7554Z" fill="#FDFDFD"/>
<path d="M27.6617 37.7508C27.6199 37.7508 27.578 37.7508 27.5362 37.7461C26.8991 37.6764 26.4387 37.1044 26.5084 36.4626C27.4153 28.1476 25.276 19.7627 20.1559 11.5314C19.8164 10.9873 19.9838 10.2711 20.5279 9.93162C21.072 9.59213 21.7882 9.75955 22.1277 10.3037C27.5315 18.9861 29.7824 27.8732 28.8197 36.7184C28.7499 37.3137 28.2477 37.7508 27.6617 37.7508Z" fill="#FDFDFD"/>
</svg>
