<svg width="48" height="48" viewBox="0 0 48 48" fill="none" xmlns="http://www.w3.org/2000/svg">
<rect width="48" height="48" rx="24" fill="#410292"/>
<path d="M18.4788 33.7274V20.7612H14.1729V33.7274H18.4793H18.4788ZM16.3267 18.9912C17.828 18.9912 18.7626 17.9955 18.7626 16.7512C18.7345 15.4786 17.828 14.5107 16.3553 14.5107C14.8816 14.5107 13.9191 15.4786 13.9191 16.7511C13.9191 17.9954 14.8534 18.9911 16.2985 18.9911H16.3264L16.3267 18.9912ZM20.8622 33.7274H25.1678V26.4872C25.1678 26.1002 25.1959 25.7122 25.3096 25.4358C25.6208 24.6612 26.3293 23.8594 27.519 23.8594C29.0767 23.8594 29.7002 25.0483 29.7002 26.7916V33.7274H34.0057V26.2929C34.0057 22.3105 31.8817 20.4572 29.0488 20.4572C26.7263 20.4572 25.7062 21.7565 25.1395 22.6414H25.1681V20.7616H20.8624C20.9186 21.978 20.8621 33.7278 20.8621 33.7278L20.8622 33.7274Z" fill="#FDFDFD"/>
</svg>
