<svg width="102" height="32" viewBox="0 0 102 32" fill="none" xmlns="http://www.w3.org/2000/svg">
<g clip-path="url(#clip0_23129_815)">
<path d="M35.8809 20.5617V11.6853C35.8809 11.578 35.9271 11.486 36.0043 11.4093C36.0969 11.3327 36.2049 11.2867 36.3284 11.302H38.8437C39.5844 11.2713 40.3251 11.5166 40.8961 11.9919C41.4053 12.4518 41.6676 13.1723 41.6676 14.1535V14.2761C41.6676 15.2573 41.4053 15.9932 40.8806 16.4531C40.2942 16.9283 39.5535 17.1889 38.7974 17.143H37.0073V20.5617C37.0073 20.6843 36.9456 20.7916 36.8376 20.8529C36.5907 20.9909 36.2975 20.9909 36.0506 20.8529C35.9426 20.7916 35.8809 20.6843 35.8809 20.5617ZM36.9919 16.2231H38.7974C39.2758 16.2538 39.7541 16.0851 40.0936 15.7479C40.4331 15.3646 40.6029 14.8587 40.5566 14.3375V14.1842C40.6029 13.6782 40.4331 13.1723 40.0936 12.7737C39.7387 12.4518 39.2758 12.2832 38.7974 12.3138H37.0073L36.9919 16.2231Z" fill="#FF6C37"/>
<path d="M45.5564 18.1548V14.1842C45.5564 13.1877 45.8187 12.4672 46.3279 12.0072C47.5625 11.0874 49.2599 11.0874 50.4944 12.0072C51.0191 12.4672 51.2814 13.203 51.2814 14.1842V18.1548C51.2814 19.1513 51.0191 19.8718 50.4944 20.3317C49.2599 21.2669 47.5625 21.2669 46.3279 20.3317C45.8187 19.8718 45.5564 19.1513 45.5564 18.1548ZM46.6829 18.1548C46.6829 19.3966 47.2538 20.0251 48.4266 20.0251C48.905 20.0558 49.3679 19.8872 49.7229 19.5652C50.0624 19.182 50.2167 18.676 50.1858 18.1548V14.1689C50.2321 13.6629 50.0624 13.157 49.7229 12.7584C49.3679 12.4365 48.905 12.2679 48.4266 12.2985C47.2693 12.2985 46.6983 12.9117 46.6983 14.1689L46.6829 18.1548Z" fill="#FF6C37"/>
<path d="M55.2319 19.5958C55.2319 19.4425 55.2936 19.3046 55.3862 19.1819C55.4634 19.0746 55.5714 18.998 55.7103 18.9826C55.8337 18.998 55.9417 19.0593 56.0189 19.1513C56.1424 19.2586 56.2658 19.3812 56.4047 19.5192C56.5899 19.6878 56.8059 19.8105 57.0374 19.8871C57.346 20.0098 57.6855 20.0558 58.0096 20.0558C58.5034 20.0864 58.9817 19.9331 59.3675 19.6418C59.707 19.3352 59.8922 18.8753 59.8613 18.4154C59.8768 17.9708 59.7224 17.5569 59.4138 17.2349C59.1052 16.9283 58.7348 16.6984 58.3182 16.5451C57.8861 16.3918 57.4695 16.2231 57.0219 16.0392C56.5899 15.8552 56.2195 15.5792 55.9263 15.2113C55.6177 14.7974 55.4479 14.2915 55.4788 13.7702C55.4634 13.3563 55.556 12.9424 55.7411 12.5591C55.8955 12.2372 56.1424 11.9765 56.451 11.7926C56.7442 11.6239 57.0528 11.5013 57.3769 11.4093C57.7164 11.3327 58.0558 11.2867 58.3953 11.2867C58.9354 11.2867 59.4601 11.3633 59.9693 11.5166C60.4632 11.6853 60.7255 11.8999 60.7255 12.1605C60.7255 12.2985 60.6792 12.4365 60.5866 12.5591C60.5249 12.6818 60.386 12.7737 60.2471 12.7737C60.0465 12.7124 59.8459 12.6358 59.6453 12.5438C59.2595 12.3751 58.8429 12.2832 58.4108 12.2985C57.9633 12.2832 57.5003 12.3905 57.1145 12.6204C56.775 12.8504 56.5899 13.249 56.6207 13.6629C56.6053 14.0462 56.7596 14.4141 57.0528 14.6594C57.3769 14.92 57.7472 15.1346 58.1484 15.2573C58.5805 15.4106 59.0126 15.5792 59.4447 15.7785C59.8768 15.9932 60.2471 16.3151 60.5249 16.7137C60.8335 17.2043 60.9878 17.7715 60.9724 18.3541C60.9724 19.2586 60.7101 19.9484 60.17 20.4084C59.5836 20.8989 58.8274 21.1442 58.0559 21.0982C57.3614 21.1136 56.667 20.9449 56.0652 20.6077C55.5097 20.2397 55.2319 19.9178 55.2319 19.5958Z" fill="#FF6C37"/>
<path d="M64.2901 11.7925C64.2901 11.6698 64.321 11.5472 64.3981 11.4552C64.4599 11.3479 64.5679 11.3019 64.6913 11.3019H70.0923C70.2158 11.3019 70.3238 11.3479 70.3855 11.4552C70.4627 11.5472 70.4936 11.6698 70.4936 11.7925C70.4936 11.9151 70.4627 12.0531 70.3855 12.1604C70.3238 12.2677 70.2158 12.3137 70.0923 12.3137H67.9782V20.5616C67.9782 20.6842 67.9165 20.7915 67.8085 20.8528C67.5616 20.9908 67.2684 20.9908 67.0215 20.8528C66.9135 20.7915 66.8517 20.6842 66.8517 20.5616V12.3137H64.7068C64.5833 12.3137 64.4753 12.2677 64.4136 12.1604C64.3364 12.0531 64.2901 11.9304 64.2901 11.7925Z" fill="#FF6C37"/>
<path d="M74.2898 20.5617V11.8693C74.2435 11.6087 74.4286 11.3634 74.691 11.3174C74.7527 11.3021 74.8144 11.3021 74.8607 11.3174C75.2156 11.3174 75.5089 11.5473 75.7558 12.0226L77.839 15.9932L79.9377 12.0226C80.2 11.5627 80.4932 11.3174 80.8327 11.3174C81.095 11.2714 81.3419 11.4554 81.3882 11.716C81.4037 11.762 81.4037 11.808 81.3882 11.854V20.5464C81.3882 20.669 81.3265 20.7763 81.2185 20.8377C80.9716 20.9756 80.6784 20.9756 80.4315 20.8377C80.3235 20.7763 80.2617 20.669 80.2617 20.5464V13.6323L78.2556 17.373C78.1939 17.5569 78.0242 17.6949 77.8236 17.6949C77.6384 17.6796 77.4686 17.5569 77.4069 17.373L75.4008 13.5556V20.5464C75.4008 20.669 75.3391 20.7763 75.2311 20.8377C75.1231 20.9143 74.9842 20.9603 74.8607 20.9603C74.7218 20.9603 74.583 20.9297 74.4749 20.853C74.3515 20.807 74.2743 20.6844 74.2898 20.5617Z" fill="#FF6C37"/>
<path d="M85.1997 20.5004C85.1997 20.4697 85.2151 20.4237 85.2305 20.3931L87.9465 11.7006C88.0236 11.44 88.2551 11.3174 88.6254 11.3174C88.9958 11.3174 89.2273 11.44 89.3044 11.7006L92.0358 20.4391V20.5157C92.0358 20.6537 91.9432 20.7763 91.8197 20.8377C91.6809 20.9296 91.5111 20.9756 91.3259 20.9603C91.1562 20.9756 90.9864 20.8836 90.9247 20.715L90.3383 18.7834H86.8508L86.2644 20.715C86.2181 20.8836 86.033 20.991 85.8632 20.9756C85.7089 20.9756 85.5546 20.9296 85.4157 20.8377C85.2768 20.7763 85.1997 20.6537 85.1997 20.5004ZM87.1286 17.8635H90.1069L88.6254 12.9271L87.1286 17.8635Z" fill="#FF6C37"/>
<path d="M95.8782 20.5616V11.6852C95.8782 11.4245 96.0634 11.3019 96.4337 11.3019C96.6035 11.3019 96.7732 11.3632 96.9121 11.4705C97.0664 11.6238 97.2053 11.8078 97.2824 12.0071L100.6 18.4459V11.6852C100.6 11.5625 100.662 11.4552 100.77 11.4092C101.017 11.2712 101.31 11.2712 101.557 11.4092C101.665 11.4705 101.727 11.5778 101.727 11.6852V20.5616C101.727 20.6842 101.665 20.7915 101.557 20.8528C101.433 20.9295 101.31 20.9602 101.171 20.9602C100.863 20.9448 100.585 20.7455 100.477 20.4542L96.9892 13.8161V20.5616C96.9892 20.6842 96.9275 20.7915 96.8349 20.8528C96.588 20.9908 96.2948 20.9908 96.0479 20.8528C95.9399 20.7915 95.8782 20.6842 95.8782 20.5616Z" fill="#FF6C37"/>
<path d="M30.7422 18.1241C31.8224 9.72292 25.8504 2.0423 17.4094 0.969158C8.96845 -0.103982 1.20643 5.82895 0.126233 14.2148C-0.953968 22.6006 5.018 30.2965 13.459 31.385C21.9154 32.4582 29.6466 26.5252 30.7422 18.1241Z" fill="#FF6C37"/>
<path d="M21.005 10.6884L14.4929 17.1579L12.6566 15.3336C19.0606 8.97138 19.6933 9.52328 21.005 10.6884Z" fill="white"/>
<path d="M14.4931 17.3113C14.4468 17.3113 14.4159 17.296 14.385 17.2653L12.5333 15.441C12.4715 15.3796 12.4715 15.2877 12.5333 15.2263C19.0453 8.75683 19.7243 9.37005 21.0977 10.5965C21.1286 10.6272 21.144 10.6578 21.144 10.7038C21.144 10.7498 21.1286 10.7805 21.0977 10.8111L14.5856 17.2653C14.5702 17.296 14.5239 17.3113 14.4931 17.3113ZM12.8728 15.3336L14.4931 16.9434L20.7737 10.7038C19.6317 9.692 18.8602 9.38539 12.8728 15.3336Z" fill="#FF6C37"/>
<path d="M16.36 19.013L14.5854 17.2499L21.0975 10.7804C22.8412 12.5281 20.2333 15.3643 16.36 19.013Z" fill="white"/>
<path d="M16.3602 19.1663C16.3139 19.1663 16.2831 19.1509 16.2522 19.1203L14.4776 17.3573C14.4467 17.3266 14.4467 17.2959 14.4467 17.2499C14.4467 17.2039 14.4622 17.1733 14.493 17.1426L21.0051 10.6731C21.0668 10.6118 21.1594 10.6118 21.2211 10.6731C21.6223 11.0411 21.8384 11.5623 21.8229 12.0989C21.7921 13.8006 19.8477 15.9622 16.4837 19.1203C16.4374 19.1509 16.3911 19.1663 16.3602 19.1663ZM14.8016 17.2499C15.7893 18.2464 16.2059 18.645 16.3602 18.7983C18.9527 16.3454 21.468 13.8312 21.4835 12.0989C21.4989 11.7003 21.3446 11.3017 21.0822 10.9951L14.8016 17.2499Z" fill="#FF6C37"/>
<path d="M12.6876 15.3796L13.9993 16.6827C14.0301 16.7134 14.0301 16.744 13.9993 16.7747C13.9838 16.79 13.9838 16.79 13.9684 16.79L11.2525 17.3726C11.1136 17.3879 10.9901 17.2959 10.9593 17.158C10.9439 17.0813 10.9747 17.0046 11.021 16.9587L12.595 15.3949C12.6259 15.3643 12.6722 15.3489 12.6876 15.3796Z" fill="white"/>
<path d="M11.2061 17.5259C10.9746 17.5259 10.8049 17.342 10.8049 17.112C10.8049 17.0047 10.8512 16.8974 10.9283 16.8207L12.5023 15.257C12.5949 15.1803 12.7184 15.1803 12.811 15.257L14.1226 16.5601C14.2152 16.6368 14.2152 16.7747 14.1226 16.8667C14.0918 16.8974 14.0609 16.9127 14.0146 16.928L11.2987 17.5106C11.2678 17.5106 11.237 17.5259 11.2061 17.5259ZM12.6412 15.5483L11.1289 17.0507C11.0981 17.0813 11.0826 17.1273 11.1135 17.1733C11.1289 17.2193 11.1752 17.2346 11.2215 17.2193L13.7677 16.6674L12.6412 15.5483Z" fill="#FF6C37"/>
<path d="M24.4461 7.10126C23.4585 6.15077 21.869 6.18143 20.9123 7.17792C19.9555 8.1744 19.9864 9.73812 20.9895 10.6886C21.8073 11.4705 23.0418 11.6085 24.014 11.0259L22.2548 9.27821L24.4461 7.10126Z" fill="white"/>
<path d="M22.7178 11.5315C21.2518 11.5315 20.0636 10.3511 20.0636 8.89467C20.0636 7.43827 21.2518 6.25781 22.7178 6.25781C23.3968 6.25781 24.0603 6.51843 24.5541 6.99368C24.585 7.02434 24.6004 7.055 24.6004 7.10099C24.6004 7.14699 24.585 7.17765 24.5541 7.20831L22.4709 9.27794L24.1066 10.903C24.1683 10.9643 24.1683 11.0563 24.1066 11.1176C24.0912 11.1329 24.0912 11.1329 24.0757 11.1483C23.6745 11.3936 23.1961 11.5315 22.7178 11.5315ZM22.7178 6.57975C21.4215 6.57975 20.3722 7.62223 20.3876 8.91C20.3876 10.1978 21.437 11.2402 22.7332 11.2249C23.0881 11.2249 23.4431 11.1483 23.7671 10.9796L22.1468 9.38525C22.1159 9.35459 22.1005 9.32393 22.1005 9.27794C22.1005 9.23194 22.1159 9.20128 22.1468 9.17062L24.2146 7.11632C23.798 6.76372 23.2733 6.57975 22.7178 6.57975Z" fill="#FF6C37"/>
<path d="M24.4927 7.14715L24.4618 7.11649L22.2548 9.27821L23.9989 11.0105C24.1686 10.9031 24.3383 10.7805 24.4772 10.6425C25.4648 9.67669 25.4648 8.11297 24.4927 7.14715Z" fill="white"/>
<path d="M24.0144 11.179C23.9681 11.179 23.9372 11.1637 23.9063 11.133L22.1468 9.38525C22.1159 9.35459 22.1005 9.32393 22.1005 9.27794C22.1005 9.23194 22.1159 9.20128 22.1468 9.17062L24.3384 6.99377C24.4001 6.93245 24.4924 6.93236 24.5541 6.99368L24.6008 7.02443C25.6347 8.05158 25.6347 9.70728 24.6162 10.7498C24.4619 10.9031 24.2921 11.041 24.1069 11.1484C24.0607 11.1637 24.0298 11.179 24.0144 11.179ZM22.4709 9.27794L24.0298 10.8264C24.1532 10.7498 24.2767 10.6424 24.3693 10.5505C25.2489 9.67662 25.2952 8.25088 24.4464 7.33104L22.4709 9.27794Z" fill="#FF6C37"/>
<path d="M21.2674 10.9644C20.8971 10.5965 20.2953 10.5965 19.9249 10.9644L14.1073 16.744L15.0794 17.7098L21.2366 12.3441C21.6378 12.0069 21.6687 11.409 21.3292 11.0104C21.2983 10.9951 21.2829 10.9797 21.2674 10.9644Z" fill="white"/>
<path d="M15.0639 17.8632C15.0176 17.8632 14.9868 17.8479 14.9559 17.8172L13.9837 16.8514C13.922 16.7901 13.922 16.6981 13.9837 16.6368L19.8014 10.8571C20.2335 10.4279 20.9279 10.4279 21.36 10.8571C21.792 11.2864 21.792 11.9763 21.36 12.4055C21.3445 12.4209 21.3291 12.4362 21.3137 12.4515L15.1565 17.8172C15.1411 17.8479 15.1102 17.8632 15.0639 17.8632ZM14.3232 16.7441L15.0794 17.4953L21.1285 12.2216C21.468 11.9456 21.4988 11.4397 21.2211 11.1024C20.9433 10.7652 20.4341 10.7345 20.0946 11.0105C20.0792 11.0258 20.0637 11.0411 20.0329 11.0564L14.3232 16.7441Z" fill="#FF6C37"/>
<path d="M9.64766 23.3209C9.58594 23.3516 9.55508 23.4129 9.57051 23.4742L9.83284 24.578C9.89457 24.7313 9.80198 24.9153 9.63223 24.9613C9.50878 25.0073 9.3699 24.9613 9.29274 24.8693L7.59528 23.1983L13.1352 17.6946L15.0487 17.7253L16.3449 19.013C16.0363 19.2736 14.1691 21.0673 9.64766 23.3209Z" fill="white"/>
<path d="M9.524 25.1145C9.40055 25.1145 9.2771 25.0685 9.19994 24.9765L7.51791 23.3055C7.48705 23.2748 7.47162 23.2441 7.47162 23.1981C7.47162 23.1522 7.48705 23.1215 7.51791 23.0908L13.0578 17.5872C13.0887 17.5565 13.135 17.5412 13.1658 17.5412L15.0793 17.5718C15.1256 17.5718 15.1565 17.5872 15.1873 17.6178L16.4836 18.9056C16.5144 18.9362 16.5299 18.9822 16.5299 19.0282C16.5299 19.0742 16.5144 19.1049 16.4681 19.1355L16.3601 19.2275C14.7244 20.6533 12.5023 22.079 9.74004 23.4434L10.0024 24.5319C10.0487 24.7312 9.95608 24.9458 9.7709 25.0531C9.67832 25.0991 9.60116 25.1145 9.524 25.1145ZM7.82654 23.1981L9.41598 24.7619C9.46228 24.8385 9.55486 24.8692 9.63202 24.8232C9.70918 24.7772 9.74004 24.6852 9.69375 24.6086L9.43141 23.5048C9.40055 23.3668 9.46228 23.2441 9.58573 23.1828C12.3171 21.8184 14.5238 20.408 16.1441 19.0129L15.0022 17.8784L13.2275 17.8478L7.82654 23.1981Z" fill="#FF6C37"/>
<path d="M6.28341 24.5167L7.61051 23.1983L9.58573 25.1606L6.43772 24.946C6.29884 24.9306 6.20625 24.808 6.22168 24.67C6.22168 24.6087 6.23711 24.5474 6.28341 24.5167Z" fill="white"/>
<path d="M9.58589 25.2985L6.42244 25.0839C6.19097 25.0685 6.03665 24.8692 6.05209 24.6393C6.06752 24.5473 6.09838 24.4553 6.17554 24.394L7.50264 23.0756C7.56437 23.0142 7.65696 23.0142 7.71868 23.0756L9.69391 25.0379C9.7402 25.0839 9.75563 25.1452 9.72477 25.2065C9.69391 25.2678 9.64761 25.2985 9.58589 25.2985ZM7.61066 23.4128L6.39158 24.6239C6.34528 24.6546 6.34528 24.7313 6.39158 24.7619C6.40701 24.7772 6.42244 24.7926 6.4533 24.7926L9.18467 24.9765L7.61066 23.4128Z" fill="#FF6C37"/>
<path d="M12.5949 18.3997C12.5023 18.3997 12.4406 18.3231 12.4406 18.2464C12.4406 18.2004 12.456 18.1698 12.4869 18.1391L13.9837 16.6521C14.0455 16.5907 14.138 16.5907 14.1998 16.6521L15.1719 17.6179C15.2182 17.6639 15.2337 17.7099 15.2182 17.7712C15.2028 17.8172 15.1565 17.8632 15.0948 17.8785L12.6258 18.3997C12.6103 18.3997 12.5949 18.3997 12.5949 18.3997ZM14.0917 16.974L13.0733 17.9858L14.7399 17.6332L14.0917 16.974Z" fill="#FF6C37"/>
<path d="M15.0487 17.7253L13.3511 18.0932C13.2276 18.1239 13.1042 18.0472 13.0733 17.9246C13.0579 17.8479 13.0733 17.7713 13.1351 17.7099L14.0764 16.7748L15.0487 17.7253Z" fill="white"/>
<path d="M13.3202 18.2464C13.1042 18.2464 12.9345 18.0778 12.9345 17.8632C12.9345 17.7559 12.9807 17.6639 13.0425 17.5872L13.9837 16.6521C14.0455 16.5907 14.138 16.5907 14.1998 16.6521L15.1719 17.6179C15.2182 17.6639 15.2337 17.7099 15.2182 17.7712C15.2028 17.8172 15.1565 17.8632 15.0948 17.8785L13.3974 18.2464C13.3665 18.2464 13.3357 18.2464 13.3202 18.2464ZM14.0917 16.974L13.2585 17.8019C13.2277 17.8325 13.2277 17.8632 13.2431 17.8938C13.2585 17.9245 13.2894 17.9398 13.3357 17.9398L14.7554 17.6332L14.0917 16.974Z" fill="#FF6C37"/>
<path d="M24.5081 8.61893C24.4773 8.52695 24.3693 8.48096 24.2767 8.51162C24.1841 8.54228 24.1378 8.64959 24.1687 8.74158C24.1687 8.75691 24.1841 8.77224 24.1841 8.78757C24.2767 8.97154 24.2458 9.2015 24.1224 9.37013C24.0606 9.44678 24.0761 9.5541 24.1378 9.61542C24.2149 9.67674 24.323 9.66141 24.3847 9.58476C24.6162 9.29348 24.6625 8.92554 24.5081 8.61893Z" fill="#FF6C37"/>
</g>
<defs>
<clipPath id="clip0_23129_815">
<rect width="102" height="32" fill="white"/>
</clipPath>
</defs>
</svg>
