<svg width="102" height="32" viewBox="0 0 102 32" fill="none" xmlns="http://www.w3.org/2000/svg">
<g clip-path="url(#clip0_23129_827)">
<path d="M15.353 2.05273C6.90308 2.05273 0.0527344 8.32086 0.0527344 16.0528C0.0527344 23.7851 6.90308 30.0527 15.353 30.0527C23.8039 30.0527 30.6535 23.7851 30.6535 16.0528C30.6535 8.32136 23.8039 2.0534 15.3528 2.0534L15.353 2.05273V2.05273ZM22.3696 22.2449C22.0956 22.6561 21.5073 22.7865 21.0578 22.5341C17.4655 20.5263 12.9431 20.0715 7.61728 21.1849C7.10406 21.2919 6.59248 20.9977 6.47555 20.5279C6.35807 20.0581 6.67836 19.59 7.19285 19.483C13.0211 18.2646 18.0205 18.7892 22.0535 21.0445C22.503 21.297 22.6455 21.8336 22.3696 22.2449V22.2449ZM24.2423 18.4328C23.897 18.9464 23.1626 19.1086 22.6017 18.7926C18.489 16.4795 12.2198 15.8096 7.35528 17.1607C6.7244 17.3351 6.05807 17.0098 5.8666 16.4335C5.67658 15.8562 6.03231 15.2477 6.66209 15.0721C12.2187 13.5294 19.1266 14.2767 23.8495 16.9324C24.4104 17.2483 24.5877 17.9204 24.2423 18.433V18.4328ZM24.4031 14.4633C19.4719 11.7832 11.3361 11.5368 6.62793 12.8443C5.87189 13.0541 5.07238 12.6636 4.84326 11.9718C4.61415 11.2796 5.04059 10.5485 5.79717 10.3382C11.2018 8.83695 20.1863 9.127 25.8637 12.211C26.5452 12.5803 26.7681 13.3839 26.3643 14.0054C25.9623 14.6276 25.0817 14.8327 24.4039 14.4633H24.4031ZM41.6797 14.9768C39.0378 14.4004 38.5683 13.9958 38.5683 13.1457C38.5683 12.3426 39.3941 11.8021 40.6237 11.8021C41.8149 11.8021 42.9952 12.2125 44.234 13.0574C44.2705 13.083 44.318 13.0932 44.3637 13.0865C44.4112 13.0802 44.4514 13.0569 44.4788 13.022L45.7687 11.3582C45.8217 11.2897 45.807 11.1952 45.7358 11.1429C44.2614 10.0607 42.6024 9.53459 40.6621 9.53459C37.81 9.53459 35.8167 11.1009 35.8167 13.342C35.8167 15.7452 37.536 16.5962 40.5068 17.253C43.0336 17.7858 43.4611 18.2322 43.4611 19.03C43.4611 19.9144 42.5987 20.4644 41.2102 20.4644C39.6681 20.4644 38.4093 19.9879 37.0025 18.8745C36.9678 18.8461 36.9203 18.8344 36.8764 18.836C36.8289 18.8394 36.7869 18.8595 36.7577 18.8912L35.3106 20.4661C35.2503 20.5329 35.2576 20.6299 35.3271 20.6867C36.9641 22.0242 38.9775 22.7297 41.1517 22.7297C44.2248 22.7297 46.2108 21.1933 46.2108 18.8143C46.2163 16.807 44.9027 15.6952 41.6852 14.979L41.6797 14.9768V14.9768ZM53.1646 12.5928C51.8327 12.5928 50.7401 13.073 49.8375 14.0568V12.9494C49.8375 12.862 49.7608 12.7908 49.6658 12.7908H47.2997C47.2047 12.7908 47.128 12.862 47.128 12.9494V25.2541C47.128 25.3411 47.2047 25.413 47.2997 25.413H49.6658C49.7608 25.413 49.8375 25.3411 49.8375 25.2541V21.3705C50.7401 22.295 51.8327 22.7481 53.1646 22.7481C55.6402 22.7481 58.147 21.0044 58.147 17.671C58.1506 14.3369 55.6439 12.5927 53.1664 12.5927L53.1646 12.5928ZM55.3954 17.671C55.3954 19.3677 54.2535 20.553 52.6165 20.553C50.9995 20.553 49.7791 19.3142 49.7791 17.671C49.7791 16.0276 50.9995 14.7891 52.6165 14.7891C54.2261 14.7889 55.3954 16.0007 55.3954 17.6708V17.671ZM64.569 12.5928C61.3808 12.5928 58.8833 14.8391 58.8833 17.7072C58.8833 20.5446 61.3644 22.7665 64.5307 22.7665C67.7298 22.7665 70.2347 20.5279 70.2347 17.671C70.2347 14.8237 67.7463 12.5932 64.569 12.5932V12.5928V12.5928ZM64.569 20.5697C62.8735 20.5697 61.5946 19.3225 61.5946 17.6701C61.5946 16.0102 62.8297 14.8056 64.5307 14.8056C66.2371 14.8056 67.5234 16.0523 67.5234 17.7064C67.5234 19.366 66.281 20.5697 64.569 20.5697V20.5697ZM77.0423 12.7908H74.4388V10.3556C74.4388 10.2684 74.362 10.1971 74.267 10.1971H71.901C71.806 10.1971 71.7274 10.2684 71.7274 10.3556V12.7908H70.591C70.496 12.7908 70.4193 12.862 70.4193 12.9494V14.8097C70.4193 14.8969 70.496 14.9683 70.591 14.9683H71.7274V19.7823C71.7274 21.7266 72.7853 22.713 74.8736 22.713C75.7214 22.713 76.4248 22.5525 77.088 22.2081C77.1428 22.1813 77.1757 22.1278 77.1757 22.071V20.2989C77.1757 20.2454 77.1446 20.1936 77.0935 20.1651C77.0423 20.135 76.9784 20.1334 76.9254 20.1585C76.4705 20.3674 76.0301 20.4644 75.5368 20.4644C74.7786 20.4644 74.4388 20.1484 74.4388 19.4429V14.9692H77.0423C77.1373 14.9692 77.2141 14.8979 77.2141 14.8105V12.9504C77.2177 12.863 77.141 12.7918 77.0441 12.7918L77.0423 12.7908V12.7908ZM86.1118 12.8003V12.5012C86.1118 11.6213 86.4809 11.229 87.3067 11.229C87.8 11.229 88.1965 11.3186 88.6404 11.454C88.6953 11.4697 88.7519 11.4619 88.7957 11.4319C88.8414 11.402 88.867 11.354 88.867 11.3032V9.47926C88.867 9.40954 88.8195 9.34785 88.7446 9.32729C88.2769 9.19973 87.6776 9.06883 86.7787 9.06883C84.5954 9.06883 83.4388 10.1946 83.4388 12.3233V12.7814H82.3024C82.2074 12.7814 82.1288 12.8526 82.1288 12.9399V14.8097C82.1288 14.8969 82.2074 14.9683 82.3024 14.9683H83.4388V22.392C83.4388 22.4806 83.5174 22.5508 83.6124 22.5508H85.9766C86.0734 22.5508 86.1502 22.4806 86.1502 22.392V14.9688H88.3591L91.7428 22.392C91.3591 23.1711 90.9809 23.3265 90.4657 23.3265C90.0491 23.3265 89.6088 23.2129 89.1612 22.9872C89.1191 22.9671 89.068 22.9638 89.0241 22.9755C88.9785 22.9905 88.9401 23.0206 88.9218 23.0607L88.1197 24.6707C88.0814 24.7476 88.1143 24.8362 88.1946 24.8763C89.0314 25.2909 89.786 25.4681 90.7196 25.4681C92.4663 25.4681 93.4328 24.7225 94.2824 22.7197L98.3859 13.017C98.4079 12.9682 98.4006 12.913 98.3677 12.8697C98.3366 12.8267 98.2836 12.8008 98.227 12.8008H95.7641C95.6892 12.8008 95.6234 12.8438 95.5997 12.9071L93.0765 19.4998L90.314 12.9028C90.2884 12.8414 90.2245 12.8008 90.1532 12.8008H86.1118V12.8003V12.8003ZM80.8536 12.7908H78.4875C78.3925 12.7908 78.314 12.862 78.314 12.9494V22.392C78.314 22.4806 78.3925 22.5508 78.4875 22.5508H80.8536C80.9486 22.5508 81.0271 22.4806 81.0271 22.392V12.9501C81.0271 12.8627 80.9504 12.7914 80.8536 12.7914V12.7908ZM79.6842 8.49105C78.747 8.49105 77.9869 9.18518 77.9869 10.0427C77.9869 10.9006 78.747 11.5956 79.6842 11.5956C80.6215 11.5956 81.3797 10.9006 81.3797 10.0427C81.3797 9.18535 80.6197 8.49105 79.6842 8.49105ZM100.407 15.827C99.4712 15.827 98.7422 15.139 98.7422 14.3036C98.7422 13.4682 99.4803 12.7724 100.416 12.7724C101.351 12.7724 102.08 13.4602 102.08 14.2949C102.08 15.1303 101.342 15.827 100.407 15.827ZM100.416 12.9239C99.5626 12.9239 98.9176 13.5441 98.9176 14.3036C98.9176 15.0628 99.5589 15.6747 100.407 15.6747C101.26 15.6747 101.905 15.0549 101.905 14.2949C101.905 13.5357 101.264 12.9239 100.416 12.9239V12.9239ZM100.785 14.4516L101.256 15.0547H100.858L100.434 14.5014H100.07V15.0547H99.738V13.4558H100.516C100.924 13.4558 101.19 13.6459 101.19 13.9659C101.192 14.228 101.026 14.3882 100.787 14.4516H100.785ZM100.503 13.7302H100.07V14.2359H100.503C100.719 14.2359 100.849 14.1391 100.849 13.9828C100.849 13.8183 100.719 13.7302 100.503 13.7302V13.7302Z" fill="#1ED760"/>
</g>
<defs>
<clipPath id="clip0_23129_827">
<rect width="102" height="32" fill="white"/>
</clipPath>
</defs>
</svg>
