<svg width="102" height="32" viewBox="0 0 102 32" fill="none" xmlns="http://www.w3.org/2000/svg">
<path d="M26.6004 9.64453H36.8391V11.588H32.8077V22.5434H30.598V11.588H26.5835L26.6004 9.64453ZM36.4005 13.2046H38.2897V15.0104H38.3234C38.3909 14.7525 38.509 14.5117 38.6777 14.2709C38.8463 14.0301 39.0488 13.8066 39.3018 13.6174C39.5379 13.411 39.8078 13.2562 40.1114 13.1358C40.3982 13.0154 40.7018 12.9466 41.0054 12.9466C41.2416 12.9466 41.4102 12.9638 41.4946 12.9638C41.5789 12.981 41.6801 12.9982 41.7645 12.9982V14.9761C41.6295 14.9417 41.4777 14.9245 41.3259 14.9073C41.1741 14.8901 41.0391 14.8729 40.8873 14.8729C40.55 14.8729 40.2295 14.9417 39.9259 15.0792C39.6223 15.2168 39.3692 15.4232 39.1331 15.6812C38.9138 15.9564 38.7283 16.2831 38.5933 16.6787C38.4584 17.0743 38.3909 17.5386 38.3909 18.0546V22.4918H36.3668L36.4005 13.2046ZM51.0417 22.5434H49.0513V21.2363H49.0176C48.7646 21.7179 48.3935 22.079 47.9043 22.3714C47.4152 22.6638 46.9091 22.8014 46.4031 22.8014C45.2055 22.8014 44.3284 22.509 43.7886 21.8898C43.2488 21.2879 42.9789 20.3592 42.9789 19.1381V13.2046H45.0031V18.9317C45.0031 19.7572 45.1549 20.342 45.4754 20.6687C45.779 21.0127 46.2175 21.1847 46.7742 21.1847C47.1959 21.1847 47.5501 21.1159 47.8368 20.9783C48.1236 20.8407 48.3597 20.6687 48.5284 20.4452C48.714 20.2216 48.832 19.9464 48.9164 19.6368C49.0007 19.3273 49.0345 18.9833 49.0345 18.6221V13.2046H51.0586V22.5434H51.0417ZM54.4827 19.5508C54.5502 20.1528 54.7695 20.5656 55.1574 20.8235C55.5454 21.0643 56.0177 21.1847 56.5575 21.1847C56.743 21.1847 56.9623 21.1675 57.1984 21.1331C57.4346 21.0987 57.6707 21.0471 57.8731 20.9611C58.0924 20.8751 58.2611 20.7547 58.396 20.5827C58.531 20.4108 58.5985 20.2044 58.5816 19.9464C58.5647 19.6884 58.4804 19.4648 58.2948 19.2929C58.1093 19.1209 57.89 19.0005 57.6201 18.8801C57.3502 18.7769 57.0298 18.6909 56.6755 18.6221C56.3213 18.5533 55.9671 18.4673 55.596 18.3813C55.2249 18.2954 54.8538 18.1922 54.4996 18.0718C54.1454 17.9514 53.8418 17.7966 53.555 17.573C53.2851 17.3666 53.049 17.1087 52.8972 16.7819C52.7285 16.4551 52.6441 16.0768 52.6441 15.5952C52.6441 15.0792 52.7622 14.6665 53.0152 14.3225C53.2514 13.9785 53.5719 13.7034 53.943 13.497C54.3141 13.2906 54.7358 13.1358 55.1912 13.0498C55.6466 12.9638 56.0852 12.9294 56.49 12.9294C56.9623 12.9294 57.4177 12.981 57.8394 13.0842C58.2611 13.1874 58.6659 13.3422 59.0033 13.583C59.3575 13.8066 59.6443 14.1161 59.8635 14.4773C60.0997 14.8385 60.2346 15.2856 60.3021 15.8016H58.1936C58.0924 15.3028 57.8731 14.9761 57.5358 14.8041C57.1816 14.6321 56.7936 14.5461 56.3382 14.5461C56.2032 14.5461 56.0177 14.5633 55.8322 14.5805C55.6297 14.6149 55.4611 14.6493 55.2755 14.7181C55.1068 14.7869 54.955 14.8901 54.837 15.0104C54.7189 15.1308 54.6514 15.3028 54.6514 15.5092C54.6514 15.7672 54.7357 15.9564 54.9044 16.1111C55.0731 16.2659 55.2924 16.3863 55.5791 16.5067C55.849 16.6099 56.1695 16.6959 56.5237 16.7647C56.878 16.8335 57.249 16.9195 57.6201 17.0055C57.9912 17.0915 58.3454 17.1947 58.6997 17.315C59.0539 17.4354 59.3744 17.5902 59.6443 17.8138C59.9141 18.0202 60.1503 18.2782 60.319 18.5877C60.4876 18.8973 60.572 19.2929 60.572 19.74C60.572 20.2904 60.4539 20.7547 60.2009 21.1503C59.9479 21.5287 59.6274 21.8554 59.2394 22.0962C58.8515 22.337 58.396 22.509 57.9237 22.6294C57.4346 22.7326 56.9623 22.8014 56.49 22.8014C55.9165 22.8014 55.3767 22.7326 54.8876 22.595C54.3984 22.4574 53.9598 22.251 53.6056 21.993C53.2514 21.7178 52.9646 21.3911 52.7622 20.9783C52.5598 20.5828 52.4417 20.1012 52.4249 19.5336H54.4659V19.5508H54.4827ZM61.1455 13.2046H62.6805V10.3841H64.7046V13.1874H66.5263V14.7181H64.7046V19.7056C64.7046 19.9292 64.7214 20.1012 64.7383 20.2732C64.7552 20.428 64.8058 20.5656 64.8564 20.6687C64.9239 20.7719 65.0251 20.8579 65.1431 20.9095C65.2781 20.9611 65.4468 20.9955 65.6829 20.9955C65.8179 20.9955 65.9697 20.9955 66.1046 20.9783C66.2395 20.9611 66.3914 20.9439 66.5263 20.9095V22.509C66.307 22.5434 66.0877 22.5606 65.8685 22.5778C65.6492 22.6122 65.4468 22.6122 65.2106 22.6122C64.6708 22.6122 64.2492 22.5606 63.9287 22.4574C63.6082 22.3542 63.3552 22.1994 63.1696 22.0102C62.9841 21.8038 62.866 21.5631 62.7985 21.2707C62.7311 20.9783 62.6973 20.6171 62.6805 20.2388V14.7353H61.1455V13.1702V13.2046ZM67.9432 13.2046H69.8492V14.4773H69.883C70.1697 13.9269 70.5577 13.5486 71.0637 13.3078C71.5697 13.067 72.1095 12.9466 72.7168 12.9466C73.4421 12.9466 74.0662 13.067 74.6059 13.3422C75.1457 13.6002 75.5843 13.9441 75.9385 14.4085C76.2927 14.8557 76.5626 15.3888 76.7313 15.9908C76.9 16.5927 77.0012 17.2462 77.0012 17.917C77.0012 18.5533 76.9168 19.1553 76.765 19.74C76.5963 20.3248 76.3602 20.8579 76.0397 21.3051C75.7192 21.7522 75.3144 22.1134 74.8084 22.3886C74.3023 22.6638 73.7288 22.8014 73.0541 22.8014C72.7674 22.8014 72.4637 22.767 72.177 22.7154C71.8902 22.6638 71.6035 22.5778 71.3336 22.4574C71.0637 22.337 70.8107 22.1822 70.5914 21.993C70.3553 21.8038 70.1697 21.5803 70.0179 21.3395H69.9842V26.0003H67.9601V13.2046H67.9432ZM75.0108 17.8826C75.0108 17.4698 74.9602 17.0571 74.8421 16.6615C74.7409 16.2659 74.5722 15.922 74.3529 15.6124C74.1336 15.3028 73.8638 15.062 73.5601 14.8729C73.2397 14.6837 72.8686 14.5977 72.4637 14.5977C71.6204 14.5977 70.9794 14.8901 70.5408 15.492C70.1191 16.094 69.8998 16.9023 69.8998 17.8998C69.8998 18.3814 69.9504 18.8113 70.0685 19.2069C70.1866 19.6024 70.3384 19.9464 70.5746 20.2388C70.7938 20.5312 71.0637 20.7547 71.3842 20.9267C71.7047 21.0987 72.0589 21.1847 72.4806 21.1847C72.9529 21.1847 73.324 21.0815 73.6445 20.8923C73.965 20.7031 74.218 20.4452 74.4373 20.1528C74.6397 19.8432 74.7915 19.4993 74.8758 19.1037C74.9602 18.6909 75.0108 18.2954 75.0108 17.8826ZM78.5699 9.64453H80.594V11.588H78.5699V9.64453ZM78.5699 13.2046H80.594V22.5434H78.5699V13.2046ZM82.3988 9.64453H84.423V22.5434H82.3988V9.64453ZM90.5966 22.8014C89.8712 22.8014 89.2134 22.681 88.6399 22.423C88.0664 22.165 87.5941 21.8382 87.1893 21.4083C86.8013 20.9783 86.4977 20.4452 86.2953 19.8432C86.0929 19.2413 85.9748 18.5705 85.9748 17.8654C85.9748 17.1603 86.076 16.5067 86.2953 15.9048C86.4977 15.3028 86.8013 14.7869 87.1893 14.3397C87.5772 13.9097 88.0664 13.5658 88.6399 13.325C89.2134 13.0842 89.8712 12.9466 90.5966 12.9466C91.3219 12.9466 91.9797 13.067 92.5532 13.325C93.1267 13.5658 93.599 13.9097 94.0038 14.3397C94.3918 14.7697 94.6954 15.3028 94.8978 15.9048C95.1002 16.5067 95.2183 17.1603 95.2183 17.8654C95.2183 18.5877 95.1171 19.2413 94.8978 19.8432C94.6786 20.4452 94.3918 20.9611 94.0038 21.4083C93.6159 21.8382 93.1267 22.1822 92.5532 22.423C91.9797 22.6638 91.3387 22.8014 90.5966 22.8014ZM90.5966 21.1675C91.0351 21.1675 91.4399 21.0643 91.7604 20.8751C92.0978 20.6859 92.3508 20.428 92.5701 20.1184C92.7894 19.8088 92.9412 19.4477 93.0424 19.0693C93.1436 18.6737 93.1942 18.2782 93.1942 17.8654C93.1942 17.4698 93.1436 17.0743 93.0424 16.6787C92.9412 16.2831 92.7894 15.9392 92.5701 15.6296C92.3508 15.32 92.0809 15.0792 91.7604 14.8901C91.4231 14.7009 91.0351 14.5977 90.5966 14.5977C90.158 14.5977 89.7532 14.7009 89.4327 14.8901C89.0953 15.0792 88.8423 15.3372 88.623 15.6296C88.4038 15.9392 88.2519 16.2831 88.1507 16.6787C88.0495 17.0743 87.9989 17.4698 87.9989 17.8654C87.9989 18.2782 88.0495 18.6737 88.1507 19.0693C88.2519 19.4649 88.4038 19.8088 88.623 20.1184C88.8423 20.428 89.1122 20.6859 89.4327 20.8751C89.77 21.0815 90.158 21.1675 90.5966 21.1675ZM95.8256 13.2046H97.3605V10.3841H99.3847V13.1874H101.206V14.7181H99.3847V19.7056C99.3847 19.9292 99.4015 20.1012 99.4184 20.2732C99.4353 20.428 99.4859 20.5656 99.5365 20.6687C99.6039 20.7719 99.7051 20.8579 99.8232 20.9095C99.9582 20.9611 100.127 20.9955 100.363 20.9955C100.498 20.9955 100.65 20.9955 100.785 20.9783C100.92 20.9611 101.071 20.9439 101.206 20.9095V22.509C100.987 22.5434 100.768 22.5606 100.549 22.5778C100.329 22.6122 100.127 22.6122 99.8907 22.6122C99.3509 22.6122 98.9292 22.5606 98.6087 22.4574C98.2882 22.3542 98.0352 22.1994 97.8497 22.0102C97.6641 21.8038 97.5461 21.5631 97.4786 21.2707C97.4111 20.9783 97.3774 20.6171 97.3605 20.2388V14.7353H95.8256V13.1702V13.2046Z" fill="black"/>
<path d="M24.2389 9.64459H14.9785L12.1279 0.666992L9.26038 9.64459L0 9.62739L7.48927 15.1825L4.62176 24.1601L12.111 18.605L19.6003 24.1601L16.7497 15.1825L24.2389 9.64459Z" fill="#00B67A"/>
<path d="M17.3907 17.2111L16.7497 15.1816L12.1279 18.6041L17.3907 17.2111Z" fill="#005128"/>
</svg>
